<svg aria-hidden="true" style="position: absolute; width: 0; height: 0; overflow: hidden;" version="1.1"
    xmlns="http://www.w3.org/2000/svg" xmlns:xlink="http://www.w3.org/1999/xlink">
    <defs>
        <symbol id="icon-arrow" viewBox="0 0 34 32">
            <path
                d="M16.127 6.678l11.784-0.368-2.408 11.541-3.876-4.619-16.127 13.532-1.624-1.935 16.127-13.532-3.876-4.619z">
            </path>
        </symbol>
        <symbol id="icon-Arrow-straight" viewBox="0 0 64 32">
            <path d="M44.444 0l19.556 15.396-19.556 15.396v-12.729h-44.444v-5.333h44.444v-12.729z"></path>
        </symbol>
        <symbol id="icon-favicon" viewBox="0 0 32 32">
            <path
                d="M21.161 18.159c0 2.846-2.315 5.161-5.161 5.161s-5.16-2.315-5.16-5.161c0-2.846 2.314-5.161 5.16-5.161s5.161 2.316 5.161 5.161zM32 10.831v14.658c0 1.954-1.584 3.538-3.538 3.538h-24.923c-1.954 0-3.538-1.584-3.538-3.538v-14.658c0-1.954 1.584-3.538 3.538-3.538h4.352v-1.224c0-1.71 1.385-3.096 3.096-3.096h10.026c1.711 0 3.096 1.386 3.096 3.096v1.223h4.352c1.954 0.001 3.538 1.585 3.538 3.539zM23.815 18.159c0-4.309-3.506-7.815-7.815-7.815s-7.814 3.506-7.814 7.815c0 4.309 3.506 7.815 7.814 7.815s7.815-3.506 7.815-7.815z">
            </path>
        </symbol>
        <symbol id="icon-Nav" viewBox="0 0 46 32">
            <path stroke-linejoin="miter" stroke-linecap="round" stroke-miterlimit="4" stroke-width="3.4286"
                d="M8.671 5.074h35.329"></path>
            <path stroke-linejoin="miter" stroke-linecap="round" stroke-miterlimit="4" stroke-width="3.4286"
                d="M8.671 24.468h35.329"></path>
            <path stroke-linejoin="miter" stroke-linecap="round" stroke-miterlimit="4" stroke-width="3.4286"
                d="M19.602 14.771h24.398"></path>
        </symbol>
        <symbol id="icon-star" viewBox="0 0 32 32">
            <path stroke-linejoin="round" stroke-linecap="round" stroke-miterlimit="4" stroke-width="2.4"
                d="M16 2.667l4.12 8.347 9.213 1.347-6.667 6.493 1.573 9.173-8.24-4.333-8.24 4.333 1.573-9.173-6.667-6.493 9.213-1.347 4.12-8.347z">
            </path>
        </symbol>
        <symbol id="icon-x-icon" viewBox="0 0 32 32">
            <path stroke-linejoin="round" stroke-linecap="round" stroke-miterlimit="4" stroke-width="3"
                d="M24 8l-16 16"></path>
            <path stroke-linejoin="round" stroke-linecap="round" stroke-miterlimit="4" stroke-width="3" d="M8 8l16 16">
            </path>
        </symbol>
        <symbol id="icon-star-transparent" viewBox="0 0 32 32">
          <path stroke-linejoin="round" stroke-linecap="round" stroke-miterlimit="4" stroke-width="2.4" d="M16 2.667l4.12 8.347 9.213 1.347-6.667 6.493 1.573 9.173-8.24-4.333-8.24 4.333 1.573-9.173-6.667-6.493 9.213-1.347 4.12-8.347z"></path>
        </symbol>
        <symbol id="icon-camera" viewBox="0 0 32 32">
          <path d="M21 17c0 1.326-0.527 2.598-1.464 3.536s-2.209 1.464-3.536 1.464-2.598-0.527-3.536-1.464c-0.938-0.938-1.464-2.21-1.464-3.536s0.527-2.598 1.464-3.536c0.938-0.938 2.209-1.464 3.536-1.464s2.598 0.527 3.536 1.464c0.938 0.938 1.464 2.209 1.464 3.536z"></path>
          <path d="M4 8c-1.061 0-2.078 0.421-2.828 1.172s-1.172 1.768-1.172 2.828v12c0 1.061 0.421 2.078 1.172 2.828s1.768 1.172 2.828 1.172h24c1.061 0 2.078-0.421 2.828-1.172s1.172-1.768 1.172-2.828v-12c0-1.061-0.421-2.078-1.172-2.828s-1.768-1.172-2.828-1.172h-2.344c-1.061-0-2.078-0.422-2.828-1.172l-1.656-1.656c-0.75-0.75-1.767-1.172-2.828-1.172h-4.688c-1.061 0-2.078 0.422-2.828 1.172l-1.656 1.656c-0.75 0.75-1.767 1.172-2.828 1.172h-2.344zM5 12c-0.265 0-0.52-0.105-0.707-0.293s-0.293-0.442-0.293-0.707c0-0.265 0.105-0.52 0.293-0.707s0.442-0.293 0.707-0.293c0.265 0 0.52 0.105 0.707 0.293s0.293 0.442 0.293 0.707c0 0.265-0.105 0.52-0.293 0.707s-0.442 0.293-0.707 0.293zM23 17c0 1.857-0.737 3.637-2.050 4.95s-3.093 2.050-4.95 2.050c-1.857 0-3.637-0.737-4.95-2.050s-2.050-3.093-2.050-4.95c0-1.857 0.738-3.637 2.050-4.95s3.093-2.050 4.95-2.050c1.857 0 3.637 0.738 4.95 2.050s2.050 3.093 2.050 4.95z"></path>
        </symbol>
        <symbol id="icon-logo" viewBox="0 0 203 32">
           <path d="M16.534 17.72h-11.202v10.588h-5.332v-25.108h18.146v4.386h-12.813v5.71h11.202v4.424z"></path>
           <path d="M27.344 24.678c3.031 0 4.565-1.891 4.565-5.672s-1.535-5.634-4.565-5.634c-3.031 0-4.565 1.853-4.565 5.634s1.535 5.672 4.565 5.672zM27.344 28.8c-6.1 0-9.706-4.008-9.706-9.794 0-5.899 3.721-9.794 9.706-9.794 5.908 0 9.591 3.857 9.591 9.794 0 5.899-3.721 9.794-9.591 9.794z"></path>
           <path d="M50.71 21.578h5.026c-0.537 4.311-4.105 7.222-8.67 7.222-5.141 0-8.67-3.365-8.67-10.021s3.529-9.567 8.824-9.567c4.91 0 8.248 2.76 8.555 7.147h-5.025c-0.269-1.928-1.688-3.063-3.568-3.063-2.11 0-3.836 1.323-3.836 5.37s1.726 6.012 3.683 6.012 3.491-1.096 3.683-3.101z"></path>
           <path d="M74.205 28.308h-4.719v-2.609c-1.304 2.118-3.261 3.101-5.869 3.101-3.76 0-6.407-2.76-6.407-6.844v-12.252h4.987v11.495c0 2.344 1.074 3.479 3.184 3.479 2.532 0 3.875-1.777 3.875-4.235v-10.739h4.949v18.605z"></path>
           <path d="M92.542 15.338h-4.795c-0.268-1.815-1.266-2.458-3.529-2.458-1.88 0-2.954 0.454-2.954 1.55s1.036 1.55 3.069 2.118c2.148 0.605 4.182 1.021 5.639 1.588 1.995 0.794 3.107 2.080 3.107 4.5 0 3.857-2.877 6.164-8.248 6.164-5.793 0-9.015-2.685-9.092-6.466h5.141c0 1.74 1.496 2.76 3.913 2.76 1.765 0 3.338-0.529 3.338-1.928 0-1.324-1.419-1.74-3.031-2.118-3.184-0.756-4.949-1.286-6.292-2.118-1.765-1.097-2.378-2.533-2.378-4.197 0-3.139 2.187-5.521 7.941-5.521 5.448 0 7.903 2.118 8.171 6.126z"></path>
           <path d="M99.704 28.308h-5.332v-5.105h5.332v5.105z"></path>
           <path d="M118.061 17.72h-11.202v10.588h-5.332v-25.108h18.146v4.386h-12.813v5.71h11.202v4.424z"></path>
           <path d="M125.249 28.308h-4.987v-18.605h4.68v2.231c1.65-2.496 3.568-2.723 5.601-2.723h0.652v5.029c-0.46-0.076-0.921-0.113-1.381-0.113-3.069 0-4.565 1.513-4.565 4.5v9.68z"></path>
           <path d="M143.083 21.237l0.038-2.042c-0.499 0.492-1.381 0.756-3.223 1.097-2.839 0.529-3.76 1.324-3.76 2.912 0 1.399 0.844 2.080 2.417 2.080 2.57 0 4.488-1.853 4.527-4.046zM148.108 28.308h-4.642c-0.153-0.454-0.268-1.097-0.307-1.664-1.189 1.286-3.184 2.155-5.716 2.155-4.297 0-6.292-2.080-6.292-5.105 0-5.37 3.644-5.975 8.67-6.655 2.494-0.34 3.184-0.832 3.184-2.118 0-1.21-1.228-1.928-3.184-1.928-2.263 0-3.184 1.097-3.414 2.76h-4.642c0.077-3.857 2.225-6.542 8.286-6.542 5.985 0 8.056 2.647 8.056 7.336v11.76z"></path>
           <path d="M177.315 28.308h-4.872v-11.269c0-2.231-1.189-3.819-2.954-3.819-1.842 0-3.184 1.702-3.184 3.971v11.117h-4.987v-11.193c0-2.987-0.806-3.744-2.993-3.744-1.995 0-3.031 1.21-3.031 3.63v11.306h-4.987v-18.605h4.68v2.723c1.266-2.458 3.031-3.214 5.524-3.214 2.571 0 3.798 0.794 5.256 2.949 1.035-2.042 2.723-2.949 5.102-2.949 3.798 0 6.445 2.723 6.445 6.201v12.895z"></path>
           <path d="M183.949 17.191h7.71c-0.077-2.76-1.918-4.084-3.875-4.084-1.994 0-3.643 1.513-3.835 4.084zM196.8 20.292h-13.005c0.154 2.798 1.765 4.613 4.219 4.613 1.611 0 3.030-0.794 3.376-2.080h5.141c-1.15 3.819-4.258 5.975-8.286 5.975-6.291 0-9.437-3.403-9.437-10.134 0-5.748 3.338-9.454 9.13-9.454 5.794 0 8.862 3.706 8.862 11.079z"></path>
        </symbol>
        <symbol id="icon-arrow-true" viewBox="0 0 32 32">
           <path stroke-linejoin="round" stroke-linecap="round" stroke-miterlimit="4" stroke-width="2.0800" d="M8 24l16-16"></path>
           <path stroke-linejoin="round" stroke-linecap="round" stroke-miterlimit="4" stroke-width="2.0800" d="M13.333 8h10.667v10.667"></path>
        </symbol>
        <symbol id="icon-arrow-narrow-up-right" viewBox="0 0 32 32">
           <path stroke-linejoin="round" stroke-linecap="round" stroke-miterlimit="4" stroke-width="2.0800" d="M8 24l16-16"></path>
           <path stroke-linejoin="round" stroke-linecap="round" stroke-miterlimit="4" stroke-width="2.0800" d="M13.333 8h10.667v10.667"></path>
        </symbol>
        <symbol id="icon-arrow-for-olenka" viewBox="0 0 32 32">
            <path stroke-linejoin="round" stroke-linecap="round" stroke-miterlimit="4" stroke-width="2.0800" d="M8 24l16-16"></path>
            <path stroke-linejoin="round" stroke-linecap="round" stroke-miterlimit="4" stroke-width="2.0800" d="M13.333 8h10.667v10.667"></path>
<symbol id="icon-bell" viewBox="0 0 32 32">
<path d="M32.047 25c0-9-8-7-8-14 0-0.58-0.056-1.076-0.158-1.498-0.526-3.532-2.88-6.366-5.93-7.23 0.027-0.123 0.041-0.251 0.041-0.382 0-1.040-0.9-1.891-2-1.891s-2 0.851-2 1.891c0 0.131 0.014 0.258 0.041 0.382-3.421 0.969-5.966 4.416-6.039 8.545-0.001 0.060-0.002 0.121-0.002 0.183 0 7-8 5-8 14 0 2.382 5.331 4.375 12.468 4.878 0.673 1.263 2.002 2.122 3.532 2.122s2.86-0.86 3.532-2.122c7.137-0.503 12.468-2.495 12.468-4.878 0-0.007-0.001-0.014-0.001-0.021l0.048 0.021zM25.82 26.691c-1.695 0.452-3.692 0.777-5.837 0.958-0.178-2.044-1.893-3.648-3.984-3.648s-3.805 1.604-3.984 3.648c-2.144-0.18-4.142-0.506-5.837-0.958-2.332-0.622-3.447-1.318-3.855-1.691 0.408-0.372 1.523-1.068 3.855-1.691 2.712-0.724 6.199-1.122 9.82-1.122s7.109 0.398 9.82 1.122c2.332 0.622 3.447 1.318 3.855 1.691-0.408 0.372-1.523 1.068-3.855 1.691z"></path>
</symbol>
<symbol id="icon-user" viewBox="0 0 32 32">
<path d="M18 22.082v-1.649c2.203-1.241 4-4.337 4-7.432 0-4.971 0-9-6-9s-6 4.029-6 9c0 3.096 1.797 6.191 4 7.432v1.649c-6.784 0.555-12 3.888-12 7.918h28c0-4.030-5.216-7.364-12-7.918z"></path>
</symbol>
<symbol id="icon-stats-bars2" viewBox="0 0 32 32">
<path d="M9 12h-6c-0.55 0-1 0.45-1 1v18c0 0.55 0.45 1 1 1h6c0.55 0 1-0.45 1-1v-18c0-0.55-0.45-1-1-1zM9 30h-6v-8h6v8zM19 8h-6c-0.55 0-1 0.45-1 1v22c0 0.55 0.45 1 1 1h6c0.55 0 1-0.45 1-1v-22c0-0.55-0.45-1-1-1zM19 30h-6v-10h6v10zM29 4h-6c-0.55 0-1 0.45-1 1v26c0 0.55 0.45 1 1 1h6c0.55 0 1-0.45 1-1v-26c0-0.55-0.45-1-1-1zM29 30h-6v-12h6v12z"></path>
</symbol>
<symbol id="icon-bubbles4" viewBox="0 0 36 32">
<path d="M15 4c-1.583 0-3.112 0.248-4.543 0.738-1.341 0.459-2.535 1.107-3.547 1.926-1.876 1.518-2.91 3.463-2.91 5.474 0 1.125 0.315 2.217 0.935 3.247 0.646 1.073 1.622 2.056 2.821 2.842 0.951 0.624 1.592 1.623 1.761 2.748 0.028 0.187 0.051 0.375 0.068 0.564 0.085-0.079 0.169-0.16 0.254-0.244 0.754-0.751 1.771-1.166 2.823-1.166 0.167 0 0.335 0.011 0.503 0.032 0.605 0.077 1.223 0.116 1.836 0.116 1.583 0 3.112-0.248 4.543-0.738 1.341-0.459 2.535-1.107 3.547-1.926 1.876-1.518 2.91-3.463 2.91-5.474s-1.033-3.956-2.91-5.474c-1.012-0.819-2.206-1.467-3.547-1.926-1.431-0.49-2.96-0.738-4.543-0.738zM15 0v0c8.284 0 15 5.435 15 12.139s-6.716 12.139-15 12.139c-0.796 0-1.576-0.051-2.339-0.147-3.222 3.209-6.943 3.785-10.661 3.869v-0.785c2.008-0.98 3.625-2.765 3.625-4.804 0-0.285-0.022-0.564-0.063-0.837-3.392-2.225-5.562-5.625-5.562-9.434 0-6.704 6.716-12.139 15-12.139zM31.125 27.209c0 1.748 1.135 3.278 2.875 4.118v0.673c-3.223-0.072-6.181-0.566-8.973-3.316-0.661 0.083-1.337 0.126-2.027 0.126-2.983 0-5.732-0.805-7.925-2.157 4.521-0.016 8.789-1.464 12.026-4.084 1.631-1.32 2.919-2.87 3.825-4.605 0.961-1.84 1.449-3.799 1.449-5.825 0-0.326-0.014-0.651-0.039-0.974 2.268 1.873 3.664 4.426 3.664 7.24 0 3.265-1.88 6.179-4.82 8.086-0.036 0.234-0.055 0.474-0.055 0.718z"></path>
</symbol>
<symbol id="icon-camera" viewBox="0 0 32 32">
<path d="M9.5 19c0 3.59 2.91 6.5 6.5 6.5s6.5-2.91 6.5-6.5-2.91-6.5-6.5-6.5-6.5 2.91-6.5 6.5zM30 8h-7c-0.5-2-1-4-3-4h-8c-2 0-2.5 2-3 4h-7c-1.1 0-2 0.9-2 2v18c0 1.1 0.9 2 2 2h28c1.1 0 2-0.9 2-2v-18c0-1.1-0.9-2-2-2zM16 27.875c-4.902 0-8.875-3.973-8.875-8.875s3.973-8.875 8.875-8.875c4.902 0 8.875 3.973 8.875 8.875s-3.973 8.875-8.875 8.875zM30 14h-4v-2h4v2z"></path>
</symbol>
    </defs>
</svg>


